<?xml version="1.0" encoding="UTF-8" standalone="no"?>
<svg width="36px" height="60px" viewBox="0 0 36 60" version="1.1" xmlns="http://www.w3.org/2000/svg" xmlns:xlink="http://www.w3.org/1999/xlink">
    <!-- Generator: Sketch 50.2 (55047) - http://www.bohemiancoding.com/sketch -->
    <title>btn_scroll</title>
    <desc>Created with Sketch.</desc>
    <defs></defs>
    <g id="Page-1" stroke="none" stroke-width="1" fill="none" fill-rule="evenodd">
        <g id="index" transform="translate(-494.000000, -630.000000)">
            <g id="Group" transform="translate(494.000000, 630.000000)">
                <path d="M0,19.1037333 C0,9.104775 8.0484,1.00048333 17.9772,1.00048333 C27.9072,1.00048333 35.9556,9.104775 35.9556,19.1037333 C35.9556,29.1014833 27.9072,37.2069833 17.9772,37.2069833 C8.0484,37.2069833 0,29.1014833 0,19.1037333" id="Fill-1" fill="#000000"></path>
                <path d="M5.2266,20.0884042 L5.913,20.0884042 C5.931,20.7481542 6.3042,21.0913208 6.8766,21.0913208 C7.5066,21.0913208 7.8138,20.6974042 7.8138,20.1464042 C7.8138,18.8945708 5.3166,18.8607375 5.3166,17.1400708 C5.3166,16.3123625 5.931,15.6864458 6.867,15.6864458 C7.821,15.6864458 8.4018,16.3304875 8.4354,17.2911125 L7.7478,17.2911125 C7.7226,16.6470708 7.383,16.3461958 6.8766,16.3461958 C6.3282,16.3461958 6.0042,16.6639875 6.0042,17.1485292 C6.0042,18.3931125 8.5098,18.3677375 8.5098,20.1548625 C8.5098,20.9910292 7.9386,21.7498625 6.885,21.7498625 C5.8902,21.7498625 5.2434,21.1070292 5.2266,20.0884042" id="Fill-3" fill="#FFFFFF"></path>
                <path d="M10.06296,19.9545208 L10.06296,17.4822708 C10.06296,16.3295208 10.71096,15.6866875 11.68176,15.6866875 C12.67656,15.6866875 13.28856,16.3041458 13.34736,17.4327292 L12.67656,17.4327292 C12.62616,16.6811458 12.27816,16.3295208 11.67216,16.3295208 C11.11656,16.3295208 10.74336,16.6980625 10.74336,17.4822708 L10.74336,19.9545208 C10.74336,20.7314792 11.13336,21.0988125 11.69736,21.0988125 C12.31176,21.0988125 12.65136,20.7399375 12.71736,20.0052708 L13.38936,20.0052708 C13.32336,21.1157292 12.70896,21.7416458 11.69736,21.7416458 C10.71816,21.7416458 10.06296,21.1072708 10.06296,19.9545208" id="Fill-5" fill="#FFFFFF"></path>
                <path d="M15.76296,18.7939167 L16.49256,18.7939167 C17.16576,18.7939167 17.51256,18.367375 17.51256,17.5904167 C17.51256,16.830375 17.16576,16.438875 16.50096,16.438875 L15.76296,16.438875 L15.76296,18.7939167 Z M16.35216,19.43675 L15.76296,19.43675 L15.76296,21.6419583 L15.08256,21.6419583 L15.08256,15.7960417 L16.50096,15.7960417 C17.59656,15.7960417 18.20136,16.4473333 18.20136,17.56625 C18.20136,18.526875 17.77896,19.16125 17.04816,19.3702917 L18.39216,21.6419583 L17.62056,21.6419583 L16.35216,19.43675 Z" id="Fill-7" fill="#FFFFFF"></path>
                <path d="M22.5996,19.8046875 L22.5996,17.6248542 C22.5996,16.8140625 22.2516,16.3548958 21.5784,16.3548958 C20.8992,16.3548958 20.5512,16.8140625 20.5512,17.6248542 L20.5512,19.8046875 C20.5512,20.6227292 20.8992,21.0831042 21.5784,21.0831042 C22.2516,21.0831042 22.5996,20.6227292 22.5996,19.8046875 M19.854,19.8046875 L19.854,17.6248542 C19.854,16.4298125 20.5008,15.6866875 21.5784,15.6866875 C22.6572,15.6866875 23.2968,16.4298125 23.2968,17.6248542 L23.2968,19.8046875 C23.2968,21.0069792 22.6572,21.7501042 21.5784,21.7501042 C20.5008,21.7501042 19.854,21.0069792 19.854,19.8046875" id="Fill-9" fill="#FFFFFF"></path>
                <polygon id="Fill-11" fill="#FFFFFF" points="27.88596 20.9905458 27.88596 21.6418375 25.18116 21.6418375 25.18116 15.7959208 25.86156 15.7959208 25.86156 20.9905458"></polygon>
                <polygon id="Fill-13" fill="#FFFFFF" points="32.09304 20.9905458 32.09304 21.6418375 29.38824 21.6418375 29.38824 15.7959208 30.06864 15.7959208 30.06864 20.9905458"></polygon>
                <path d="M17.31096,41.1245208 L17.31096,54.4161875" id="Fill-15" fill="#000000"></path>
                <polygon id="Fill-17" fill="#000000" points="17.3112 54.415825 18.5112 54.415825 18.5112 41.1241583 17.3112 41.1241583"></polygon>
                <polygon id="Fill-19" fill="#000000" points="17.32968 58.9881583 14.02488 53.444325 20.64408 53.444325"></polygon>
            </g>
        </g>
    </g>
</svg>